<svg xmlns="http://www.w3.org/2000/svg" width="48" height="48" viewBox="0 0 48 48" fill="none"><path d="M47 1V47H1V1H47ZM48 0H0V48H48V0Z" fill="transparent"></path><path d="M37.7987 37.6809C37.2031 37.6777 36.6084 37.6343 36.0187 37.5509C33.1005 37.0945 30.4485 35.5908 28.5587 33.3209C28.4826 33.2312 28.4251 33.1273 28.3894 33.0152C28.3538 32.9032 28.3407 32.7851 28.3509 32.668C28.3611 32.5508 28.3945 32.4368 28.449 32.3326C28.5036 32.2284 28.5782 32.1361 28.6687 32.0609C28.7592 31.9846 28.8639 31.9268 28.9768 31.891C29.0897 31.8552 29.2085 31.8421 29.3265 31.8523C29.4445 31.8625 29.5593 31.8959 29.6643 31.9506C29.7694 32.0053 29.8626 32.0801 29.9387 32.1709C31.5453 34.0952 33.7935 35.3738 36.2687 35.7709C37.2687 35.9009 40.0987 36.2509 42.0687 34.3909C42.8661 33.6045 43.4317 32.6137 43.7033 31.5271C43.975 30.4405 43.9422 29.3001 43.6087 28.2309C43.3049 27.229 42.7592 26.3172 42.0198 25.576C41.2803 24.8349 40.3699 24.287 39.3687 23.9809C37.9192 23.6377 36.3999 23.7388 35.0087 24.2709C31.9087 25.2709 29.9287 26.8709 26.6587 29.5909L26.2187 29.9609C24.7287 31.1809 22.8887 32.7109 20.5687 34.4809C19.5632 35.2975 18.4492 35.9706 17.2587 36.4809C16.2949 36.8814 15.2883 37.17 14.2587 37.3409C11.9818 37.7618 9.62942 37.39 7.59335 36.2873C5.55728 35.1847 3.96039 33.4178 3.06866 31.2809C2.5214 29.9725 2.27863 28.5569 2.35867 27.1409C2.63867 21.8009 7.62867 17.5009 13.3587 17.5009H13.4187C14.4187 15.8409 17.7787 10.8309 23.9887 10.3409C26.7683 10.1881 29.5282 10.8888 31.8983 12.3491C34.2683 13.8094 36.1353 15.9594 37.2487 18.5109C37.3254 18.7263 37.3172 18.9629 37.2258 19.1725C37.1344 19.3821 36.9666 19.5491 36.7565 19.6395C36.5465 19.7298 36.3099 19.7369 36.0948 19.6591C35.8798 19.5814 35.7024 19.4247 35.5987 19.2209C34.6329 17.01 33.0154 15.1465 30.9622 13.8795C28.9089 12.6125 26.5179 12.0025 24.1087 12.1309C17.9087 12.6309 14.8287 18.6609 14.7987 18.7209C14.72 18.8843 14.6003 19.0245 14.4514 19.1279C14.3024 19.2313 14.1292 19.2943 13.9487 19.3109C8.80866 19.0709 4.35868 22.6909 4.11868 27.2409C4.05106 28.3832 4.24602 29.5257 4.68865 30.5809C5.42003 32.3467 6.73643 33.8074 8.41699 34.7177C10.0975 35.6281 12.0401 35.9329 13.9187 35.5809C14.8185 35.4403 15.6982 35.1918 16.5387 34.8409C17.5818 34.3948 18.5578 33.8058 19.4387 33.0909C21.7487 31.3209 23.5787 29.8109 25.0487 28.5909L25.4887 28.2309C28.9387 25.3609 31.0087 23.6309 34.4087 22.5809C36.1395 21.9343 38.0253 21.8263 39.8187 22.2709C41.112 22.6567 42.2899 23.3561 43.2477 24.3069C44.2055 25.2577 44.9135 26.4305 45.3087 27.7209C45.714 28.8894 45.8256 30.1397 45.6338 31.3616C45.4419 32.5835 44.9524 33.7394 44.2084 34.7274C43.4644 35.7155 42.4887 36.5053 41.3675 37.0273C40.2462 37.5494 39.0137 37.7876 37.7787 37.7209L37.7987 37.6809Z" fill="#F78606"></path></svg>