<svg xmlns="http://www.w3.org/2000/svg" width="48" height="48" viewBox="0 0 48 48" fill="none"><path d="M47 1V47H1V1H47ZM48 0H0V48H48V0Z" fill="transparent"></path><path d="M22.3915 21.4897C20.9115 20.0397 18.9115 19.8997 17.6315 21.1597C16.9138 21.8891 16.4901 22.8575 16.4415 23.8797C16.3921 24.8331 16.0099 25.739 15.3615 26.4397C15.1918 26.6131 15.0767 26.8325 15.0305 27.0707C14.9843 27.3089 15.009 27.5554 15.1015 27.7797C15.4715 28.5997 16.5115 28.5997 16.8515 28.5997C19.03 28.5295 21.1132 27.6899 22.7315 26.2297C23.0127 25.9632 23.2367 25.6423 23.3897 25.2864C23.5428 24.9304 23.6216 24.5471 23.6215 24.1597C23.6035 23.6553 23.4855 23.1596 23.2744 22.7013C23.0632 22.2429 22.7631 21.8311 22.3915 21.4897ZM21.4715 24.9397C20.318 25.9495 18.8845 26.5843 17.3615 26.7597C17.8469 25.9566 18.1444 25.054 18.2315 24.1197C18.2327 23.4966 18.4683 22.8969 18.8915 22.4397C19.0003 22.3307 19.1298 22.2446 19.2723 22.1862C19.4148 22.1278 19.5675 22.0984 19.7215 22.0997C20.261 22.1382 20.7654 22.3814 21.1315 22.7797C21.3328 22.9505 21.4983 23.1595 21.6185 23.3947C21.7386 23.6298 21.811 23.8864 21.8315 24.1497C21.8288 24.299 21.7955 24.4462 21.7335 24.5821C21.6716 24.718 21.5824 24.8397 21.4715 24.9397Z" fill="#42BBDE"></path><path d="M39.9482 11.5295H35.1982C36.3882 9.88947 37.1982 8.46947 37.1982 7.74947C37.2024 7.58823 37.1735 7.42784 37.1133 7.27821C37.0531 7.12857 36.9629 6.99286 36.8482 6.87947C36.2182 6.25947 35.3282 6.07947 30.2982 9.87947C29.5882 10.4195 28.8782 10.9695 28.1982 11.5095H8.03821C7.13199 11.5253 6.26885 11.8991 5.6374 12.5493C5.00594 13.1995 4.6575 14.0732 4.66821 14.9795V34.8495C4.65752 35.7548 5.00628 36.6275 5.63801 37.2761C6.26974 37.9247 7.13289 38.2963 8.03821 38.3095H21.4182V39.6495H16.8282C16.6072 39.6729 16.4026 39.7772 16.2539 39.9425C16.1052 40.1077 16.0229 40.3222 16.0229 40.5445C16.0229 40.7668 16.1052 40.9812 16.2539 41.1464C16.4026 41.3117 16.6072 41.4161 16.8282 41.4395H31.1782C31.4169 41.4395 31.6458 41.3446 31.8146 41.1759C31.9834 41.0071 32.0782 40.7782 32.0782 40.5395C32.0782 40.3008 31.9834 40.0719 31.8146 39.9031C31.6458 39.7343 31.4169 39.6395 31.1782 39.6395H26.5782V38.3095H39.9482C40.8544 38.2963 41.7186 37.925 42.3519 37.2767C42.9852 36.6284 43.3362 35.7557 43.3282 34.8495V14.9995C43.3389 14.0915 42.9891 13.2163 42.3555 12.5658C41.7219 11.9153 40.8562 11.5426 39.9482 11.5295ZM28.8282 13.3295C29.5682 12.7195 30.3482 12.1095 31.0982 11.5295C32.5182 10.4395 33.8282 9.53947 34.8282 8.95947C34.3882 9.65947 33.7382 10.5495 32.9882 11.5295C32.5482 12.1095 32.0682 12.7195 31.5782 13.3295C30.1255 15.1605 28.5801 16.9161 26.9482 18.5895C26.3998 19.1457 25.8079 19.6573 25.1782 20.1195C24.711 19.4499 24.1163 18.879 23.4282 18.4395C23.8983 17.8289 24.4131 17.254 24.9682 16.7195C25.8282 15.8295 27.3182 14.5895 28.8282 13.3295ZM6.42821 14.9995C6.41739 14.5705 6.57617 14.1545 6.8701 13.8419C7.16402 13.5293 7.56938 13.3451 7.99821 13.3295H25.9982C24.9982 14.1895 24.1582 14.9395 23.6482 15.4395C22.9197 16.1214 22.2507 16.864 21.6482 17.6595L21.4482 17.9295C21.3309 18.0678 21.249 18.2325 21.2094 18.4095C21.1698 18.5864 21.1738 18.7704 21.2211 18.9454C21.2683 19.1205 21.3573 19.2815 21.4805 19.4146C21.6036 19.5477 21.7573 19.6489 21.9282 19.7095C22.7094 20.1143 23.3506 20.745 23.7682 21.5195C23.8462 21.7241 23.9826 21.9014 24.1603 22.0294C24.338 22.1573 24.5494 22.2304 24.7682 22.2395C25.0304 22.2352 25.2838 22.1437 25.4882 21.9795L25.7582 21.7895C26.5678 21.2148 27.3271 20.5725 28.0282 19.8695C28.8582 19.0495 31.4882 16.1495 33.6982 13.3295H39.7982C40.011 13.3359 40.2204 13.3843 40.4145 13.4717C40.6086 13.5592 40.7835 13.684 40.9293 13.8391C41.0751 13.9942 41.1889 14.1765 41.2642 14.3756C41.3395 14.5747 41.3749 14.7867 41.3682 14.9995V32.9495H6.36821L6.42821 14.9995ZM24.7282 39.6495H23.2182V38.3095H24.7682L24.7282 39.6495ZM41.4782 34.8495C41.489 35.2775 41.3299 35.6923 41.0357 36.0034C40.7415 36.3144 40.3361 36.4964 39.9082 36.5095H8.03821C7.61115 36.4938 7.20732 36.3111 6.91367 36.0006C6.62003 35.6901 6.46006 35.2767 6.46821 34.8495V34.7495H41.5182L41.4782 34.8495Z" fill="#42BBDE"></path></svg>