<svg xmlns="http://www.w3.org/2000/svg" width="48" height="48" viewBox="0 0 48 48" fill="none"><path d="M34.0484 19.7788L29.4466 15.1771C29.3244 15.0549 29.1619 14.9873 28.9893 14.9873C28.8168 14.9873 28.6543 15.0549 28.532 15.1771L5.52308 38.1855C5.40084 38.3077 5.33325 38.4702 5.33325 38.6428C5.33325 38.8153 5.40084 38.9778 5.52308 39.1001L10.1249 43.7017C10.2471 43.824 10.4096 43.8916 10.5822 43.8916C10.7547 43.8916 10.9172 43.824 11.0395 43.7017L34.0484 20.6934C34.1706 20.5711 34.2375 20.4087 34.2375 20.2361C34.2375 20.0628 34.1706 19.9003 34.0484 19.7788ZM26.5676 26.3441C26.541 26.3707 21.1289 31.7827 16.7809 36.1306C13.6682 39.2432 11.0028 41.9085 10.9381 41.9732L10.5822 42.3292L6.8957 38.6428L6.99709 38.5414L23.2371 22.3011L26.9243 25.9882L26.5676 26.3441ZM27.8389 25.0729L24.1524 21.3858L28.9893 16.549L32.6758 20.2361L27.8389 25.0729Z" fill="#CE9503" stroke="#CE9503" stroke-width="0.3"></path><path fill-rule="evenodd" clip-rule="evenodd" d="M20.4106 5.84929C20.7874 5.16091 21.7736 5.16091 22.1504 5.84929L22.1506 5.84952C23.0006 7.40361 23.8808 8.28431 25.4344 9.1335L25.4349 9.13373C26.1232 9.51059 26.1232 10.4967 25.4349 10.8736L25.4346 10.8737C23.8805 11.7237 22.9998 12.6039 22.1507 14.1576L22.1504 14.158C21.7736 14.8464 20.7874 14.8464 20.4106 14.158L20.4105 14.1578C19.5604 12.6037 18.6803 11.723 17.1266 10.8738L17.1261 10.8736C16.4378 10.4967 16.4378 9.51059 17.1261 9.13373L17.1264 9.1336C18.6805 8.28356 19.5612 7.40339 20.4104 5.84971L20.4106 5.84929ZM21.2806 7.07553C20.5003 8.34446 19.6212 9.22313 18.3524 10.0036C19.6213 10.7838 20.5 11.6629 21.2804 12.9318C22.0607 11.6628 22.9398 10.7842 24.2086 10.0037C22.9397 9.22348 22.061 8.34435 21.2806 7.07553Z" fill="#CE9503"></path><path fill-rule="evenodd" clip-rule="evenodd" d="M38.0504 24.7758C38.3397 24.2396 39.1049 24.2453 39.3932 24.7733L39.3933 24.7735C39.9129 25.726 40.4427 26.2564 41.3946 26.7749L41.3951 26.7752C41.9255 27.0648 41.9255 27.827 41.3951 28.1166L41.3949 28.1167C40.4424 28.6363 39.912 29.1661 39.3935 30.118L39.3932 30.1185C39.1036 30.6488 38.3414 30.6488 38.0518 30.1185L38.0517 30.1183C37.532 29.1658 37.0022 28.6354 36.0504 28.1169L36.0499 28.1166C35.5195 27.827 35.5195 27.0648 36.0499 26.7752L36.0501 26.7751C37.0026 26.2554 37.533 25.7256 38.0515 24.7738L38.5596 25.0506L38.0504 24.7758ZM38.7226 25.9033C38.2985 26.542 37.8185 27.0216 37.1799 27.4457C37.8186 27.8699 38.2982 28.3498 38.7224 28.9885C39.1465 28.3497 39.6264 27.8702 40.2651 27.446C39.6264 27.0219 39.1468 26.5419 38.7226 25.9033Z" fill="#CE9503"></path><path fill-rule="evenodd" clip-rule="evenodd" d="M36.6155 7.54897C36.9624 6.90587 37.8802 6.91277 38.2259 7.54587L38.226 7.54612C38.8492 8.68846 39.4846 9.32458 40.6261 9.9464L40.6267 9.94674C41.2628 10.294 41.2628 11.2081 40.6267 11.5555L40.6265 11.5556C39.4841 12.1788 38.848 12.8142 38.2262 13.9557L38.2259 13.9563C37.8786 14.5924 36.9645 14.5924 36.6171 13.9563L36.617 13.9561C35.9938 12.8137 35.3584 12.1776 34.2169 11.5558L34.2163 11.5555C33.5802 11.2081 33.5802 10.294 34.2163 9.94674L34.2165 9.9466C35.3589 9.32342 35.995 8.68803 36.6168 7.5465L37.2262 7.87845L36.6155 7.54897ZM37.4217 8.90106C36.913 9.66711 36.3374 10.2423 35.5715 10.7509C36.3375 11.2596 36.9127 11.8352 37.4213 12.6011C37.93 11.8351 38.5056 11.2599 39.2715 10.7513C38.5055 10.2426 37.9303 9.66701 37.4217 8.90106Z" fill="#CE9503"></path></svg>