<svg xmlns="http://www.w3.org/2000/svg" width="48" height="48" viewBox="0 0 48 48" fill="none"><path d="M47 1V47H1V1H47ZM48 0H0V48H48V0Z" fill="transparent"></path><path d="M37.9094 14.2891C38.7994 14.2891 39.6694 14.0251 40.4095 13.5307C41.1495 13.0362 41.7263 12.3334 42.0669 11.5111C42.4075 10.6889 42.4965 9.78408 42.3229 8.91116C42.1493 8.03825 41.7207 7.23642 41.0913 6.60708C40.462 5.97775 39.6602 5.54916 38.7873 5.37553C37.9144 5.2019 37.0096 5.29101 36.1873 5.6316C35.365 5.9722 34.6622 6.54898 34.1678 7.289C33.6733 8.02902 33.4094 8.89904 33.4094 9.78906C33.4142 10.4861 33.5856 11.1718 33.9094 11.7891L28.4194 17.2091C27.465 16.5233 26.3247 16.1436 25.1496 16.1204C23.9746 16.0972 22.8202 16.4315 21.8394 17.0791L17.3394 12.6591C17.6761 11.9844 17.7587 11.211 17.5722 10.4804C17.3857 9.74978 16.9426 9.11067 16.3237 8.67988C15.7048 8.24909 14.9516 8.0554 14.2016 8.1342C13.4517 8.213 12.7552 8.55904 12.2394 9.10907C11.9579 9.41216 11.7387 9.76774 11.5946 10.1555C11.4505 10.5433 11.3841 10.9557 11.3994 11.3691C11.4355 12.1773 11.7822 12.9405 12.3672 13.4994C12.9522 14.0583 13.7303 14.3699 14.5394 14.3691H14.6594C15.17 14.3511 15.6682 14.2068 16.1094 13.9491L20.4994 18.2791C19.6989 19.258 19.2403 20.4717 19.1933 21.7354C19.1464 22.9991 19.5137 24.2435 20.2394 25.2791L12.8594 32.7491C12.0588 32.1251 11.0703 31.7908 10.0552 31.8008C9.04018 31.8108 8.05847 32.1644 7.27024 32.804C6.48201 33.4436 5.93376 34.3315 5.71494 35.3227C5.49612 36.3139 5.61965 37.35 6.06535 38.2621C6.51104 39.1741 7.25261 39.9081 8.16911 40.3445C9.0856 40.7809 10.123 40.8939 11.1119 40.665C12.1009 40.4361 12.9831 39.8788 13.6146 39.0841C14.2461 38.2894 14.5897 37.3041 14.5894 36.2891C14.5914 35.5329 14.3986 34.789 14.0294 34.1291L21.4894 26.6391C22.2606 27.2277 23.1692 27.6098 24.1294 27.7491V33.7491C23.0374 33.9733 22.0675 34.5948 21.4076 35.4932C20.7477 36.3916 20.4447 37.5029 20.5574 38.6119C20.6701 39.721 21.1904 40.7487 22.0175 41.496C22.8446 42.2434 23.9197 42.6571 25.0344 42.6571C26.1491 42.6571 27.2242 42.2434 28.0513 41.496C28.8784 40.7487 29.3987 39.721 29.5113 38.6119C29.624 37.5029 29.3211 36.3916 28.6612 35.4932C28.0013 34.5948 27.0313 33.9733 25.9394 33.7491V27.7491C26.9131 27.6047 27.8311 27.2044 28.5994 26.5891L33.2394 31.0891C32.9055 31.5968 32.7281 32.1914 32.7294 32.7991C32.7274 33.4229 32.9107 34.0333 33.2561 34.5529C33.6014 35.0724 34.0933 35.4777 34.6693 35.7174C35.2453 35.957 35.8795 36.0202 36.4915 35.899C37.1035 35.7778 37.6657 35.4776 38.1068 35.0364C38.5479 34.5953 38.8481 34.0331 38.9693 33.4211C39.0906 32.8092 39.0274 32.175 38.7877 31.599C38.548 31.023 38.1428 30.5311 37.6232 30.1858C37.1037 29.8404 36.4933 29.6571 35.8694 29.6591C35.4423 29.6565 35.0195 29.7451 34.6294 29.9191L29.8494 25.2891C30.5389 24.2861 30.8955 23.0917 30.8686 21.8749C30.8416 20.658 30.4326 19.4805 29.6994 18.5091L35.0394 13.2491C35.8444 13.9218 36.8603 14.2899 37.9094 14.2891V14.2891ZM37.9094 7.09907C38.367 7.09676 38.8177 7.21078 39.2191 7.43043C39.6205 7.65009 39.9596 7.96818 40.2043 8.35481C40.4491 8.74144 40.5916 9.18393 40.6184 9.64074C40.6452 10.0976 40.5555 10.5537 40.3576 10.9663C40.1598 11.3789 39.8604 11.7345 39.4874 11.9996C39.1144 12.2648 38.6802 12.4308 38.2255 12.482C37.7708 12.5333 37.3105 12.4681 36.8879 12.2927C36.4652 12.1173 36.0942 11.8373 35.8094 11.4791C35.4284 10.998 35.2205 10.4027 35.2194 9.78906C35.2194 9.07563 35.5028 8.39142 36.0073 7.88695C36.5118 7.38247 37.196 7.09907 37.9094 7.09907V7.09907ZM15.5294 12.1891C15.4107 12.3182 15.2672 12.422 15.1073 12.4941C14.9475 12.5663 14.7747 12.6054 14.5994 12.6091C14.4166 12.6255 14.2323 12.6019 14.0596 12.5397C13.8869 12.4775 13.7298 12.3783 13.5994 12.2491C13.4675 12.132 13.3613 11.989 13.2873 11.829C13.2133 11.6689 13.1732 11.4953 13.1694 11.3191C13.1662 11.0571 13.2398 10.7999 13.3813 10.5793C13.5227 10.3588 13.7256 10.1845 13.9651 10.0781C14.2045 9.97167 14.4699 9.93779 14.7284 9.98062C14.9869 10.0235 15.2271 10.1411 15.4194 10.3191C15.5513 10.4361 15.6575 10.5791 15.7315 10.7392C15.8055 10.8992 15.8456 11.0728 15.8494 11.2491C15.8671 11.5918 15.7525 11.9283 15.5294 12.1891V12.1891ZM10.0794 38.9491C9.62574 38.9556 9.17781 38.8476 8.77689 38.6353C8.37598 38.4229 8.03503 38.1129 7.78556 37.734C7.53609 37.355 7.38612 36.9193 7.34953 36.4671C7.31293 36.0149 7.39092 35.5608 7.57621 35.1466C7.7615 34.7325 8.04815 34.3717 8.40971 34.0977C8.77126 33.8236 9.19603 33.6451 9.64481 33.5785C10.0936 33.512 10.5519 33.5596 10.9775 33.717C11.403 33.8744 11.7819 34.1365 12.0794 34.4791L12.1994 34.6191C12.555 35.092 12.7479 35.6673 12.7494 36.2591C12.7468 36.9665 12.4667 37.6447 11.9693 38.1478C11.4718 38.6509 10.7968 38.9386 10.0894 38.9491H10.0794ZM34.9794 31.7891C35.2213 31.5732 35.5352 31.4555 35.8594 31.4591C36.1244 31.4591 36.3835 31.5377 36.6039 31.6849C36.8242 31.8321 36.996 32.0414 37.0974 32.2863C37.1988 32.5311 37.2253 32.8005 37.1736 33.0605C37.1219 33.3204 36.9943 33.5592 36.8069 33.7466C36.6195 33.934 36.3808 34.0616 36.1208 34.1133C35.8609 34.165 35.5914 34.1385 35.3466 34.0371C35.1017 33.9356 34.8925 33.7639 34.7452 33.5435C34.598 33.3232 34.5194 33.0641 34.5194 32.7991C34.5156 32.6002 34.5557 32.403 34.6369 32.2215C34.7182 32.04 34.8386 31.8787 34.9894 31.7491L34.9794 31.7891ZM27.7194 38.1991C27.7194 38.7335 27.5608 39.2559 27.2636 39.7001C26.9665 40.1444 26.5443 40.4904 26.0503 40.6945C25.5564 40.8985 25.013 40.9514 24.489 40.8464C23.965 40.7414 23.4839 40.4833 23.1067 40.1047C22.7295 39.7261 22.4731 39.2441 22.37 38.7196C22.267 38.1952 22.3219 37.6521 22.5278 37.1589C22.7337 36.6657 23.0813 36.2447 23.5266 35.9492C23.972 35.6538 24.495 35.4971 25.0294 35.4991C25.384 35.4991 25.7351 35.5689 26.0627 35.7046C26.3902 35.8403 26.6879 36.0392 26.9386 36.2899C27.1893 36.5406 27.3882 36.8382 27.5238 37.1658C27.6595 37.4934 27.7294 37.8445 27.7294 38.1991H27.7194ZM25.0294 26.0291C24.466 26.0359 23.9075 25.9236 23.3905 25.6996C22.8735 25.4756 22.4097 25.1448 22.0294 24.7291C21.34 23.9873 20.9576 23.0117 20.9594 21.9991C20.9594 21.4492 21.0711 20.9051 21.2877 20.3997C21.5043 19.8944 21.8212 19.4383 22.2194 19.0591L22.3594 18.9491C23.1154 18.2946 24.089 17.947 25.0885 17.9748C26.0881 18.0026 27.0409 18.4037 27.7594 19.0991V19.0991L27.8294 19.1591C28.409 19.7174 28.8067 20.4375 28.9706 21.2254C29.1345 22.0133 29.0569 22.8323 28.748 23.5754C28.4391 24.3185 27.9132 24.9511 27.2391 25.3907C26.565 25.8302 25.774 26.0562 24.9694 26.0391L25.0294 26.0291Z" fill="#BC6ED7"></path></svg>