<svg xmlns="http://www.w3.org/2000/svg" width="48" height="48" viewBox="0 0 48 48" fill="none"><path d="M47 1V47H1V1H47ZM48 0H0V48H48V0Z" fill="transparent"></path><path d="M23.5894 31.8606C23.478 31.8607 23.3677 31.8389 23.2648 31.7965C23.1618 31.754 23.0682 31.6916 22.9894 31.6129L18.0464 26.6699C17.9581 26.5926 17.8866 26.498 17.8364 26.392C17.7862 26.2859 17.7583 26.1707 17.7544 26.0534C17.7505 25.9361 17.7707 25.8193 17.8138 25.7102C17.8569 25.601 17.922 25.5019 18.0049 25.4189C18.0879 25.336 18.1871 25.2709 18.2962 25.2278C18.4054 25.1847 18.5222 25.1644 18.6394 25.1683C18.7567 25.1722 18.872 25.2002 18.978 25.2504C19.0841 25.3006 19.1787 25.3721 19.256 25.4604L23.5894 29.7938L37.1612 16.222C37.3249 16.0787 37.5369 16.003 37.7543 16.0102C37.9717 16.0174 38.1782 16.107 38.332 16.2608C38.4858 16.4146 38.5754 16.6211 38.5826 16.8385C38.5898 17.0559 38.5141 17.2679 38.3708 17.4316L24.199 31.6034C24.1195 31.6845 24.0246 31.749 23.92 31.7932C23.8154 31.8373 23.703 31.8602 23.5894 31.8606Z" fill="#74B800"></path><path d="M38.7152 25.6799C38.4878 25.6799 38.2698 25.7702 38.1091 25.9309C37.9483 26.0917 37.858 26.3097 37.858 26.5371C37.8605 29.2856 37.0582 31.9747 35.5503 34.2726C34.0423 36.5705 31.8947 38.3767 29.3722 39.4683C26.8498 40.56 24.0629 40.8893 21.3556 40.4156C18.6482 39.942 16.1387 38.686 14.1367 36.8029C12.1347 34.9197 10.7278 32.4916 10.0896 29.8182C9.45134 27.1448 9.60973 24.3431 10.5452 21.7587C11.4806 19.1743 13.1522 16.9202 15.3537 15.2747C17.5552 13.6291 20.1902 12.664 22.9338 12.4985V17.2606C22.9339 17.4146 22.9755 17.5658 23.0543 17.6982C23.133 17.8306 23.2461 17.9394 23.3814 18.013C23.5055 18.0854 23.6473 18.1217 23.7909 18.1178C23.9554 18.1144 24.1162 18.0684 24.2576 17.9844L33.096 12.27C33.2164 12.1939 33.3154 12.0884 33.3838 11.9634C33.4521 11.8384 33.4874 11.6981 33.4865 11.5557C33.4873 11.4119 33.4519 11.2703 33.3837 11.1439C33.3155 11.0174 33.2165 10.9101 33.096 10.8318L24.2576 5.11737C24.1244 5.04046 23.9733 5 23.8195 5C23.6657 5 23.5146 5.04046 23.3814 5.11737C23.2461 5.19097 23.133 5.29971 23.0543 5.43211C22.9755 5.56452 22.9339 5.71571 22.9338 5.86978V10.7652C19.8514 10.9327 16.8858 12 14.4036 13.8351C11.9215 15.6702 10.0315 18.1925 8.96758 21.0902C7.90364 23.9879 7.71235 27.1339 8.41735 30.1392C9.12234 33.1445 10.6927 35.8773 12.9343 37.9996C15.1758 40.1219 17.9903 41.5406 21.0296 42.0804C24.0689 42.6202 27.1997 42.2574 30.035 41.0368C32.8703 39.8162 35.2857 37.7913 36.9824 35.2126C38.6792 32.6339 39.5829 29.6144 39.5819 26.5275C39.5806 26.415 39.5572 26.3037 39.513 26.2002C39.4688 26.0967 39.4046 26.0029 39.3241 25.9242C39.2436 25.8455 39.1484 25.7834 39.0439 25.7415C38.9395 25.6996 38.8278 25.6786 38.7152 25.6799ZM24.6672 7.45078L31.0673 11.5938L24.6672 15.7558V7.45078Z" fill="#74B800"></path></svg>