<svg xmlns="http://www.w3.org/2000/svg" width="48" height="48" viewBox="0 0 48 48" fill="none"><path d="M47 1V47H1V1H47ZM48 0H0V48H48V0Z" fill="transparent"></path><path d="M40.1331 8.88086H7.87302C6.95974 8.89403 6.08899 9.26882 5.45163 9.92305C4.81427 10.5773 4.46234 11.4575 4.47302 12.3708V32.4409C4.46641 32.8934 4.5492 33.3429 4.71661 33.7634C4.88403 34.184 5.13278 34.5673 5.44864 34.8916C5.7645 35.2158 6.14123 35.4745 6.55725 35.6528C6.97327 35.8311 7.42041 35.9256 7.87302 35.9308H21.403V37.3109H16.743C16.5043 37.3109 16.2754 37.4057 16.1066 37.5745C15.9378 37.7432 15.843 37.9722 15.843 38.2109C15.843 38.4496 15.9378 38.6785 16.1066 38.8472C16.2754 39.016 16.5043 39.1109 16.743 39.1109H31.263C31.5017 39.1109 31.7306 39.016 31.8994 38.8472C32.0682 38.6785 32.163 38.4496 32.163 38.2109C32.163 37.9722 32.0682 37.7432 31.8994 37.5745C31.7306 37.4057 31.5017 37.3109 31.263 37.3109H26.603V35.9308H40.1331C41.0463 35.9177 41.9171 35.5429 42.5544 34.8887C43.1918 34.2344 43.5437 33.3542 43.533 32.4409V12.3708C43.5411 11.4583 43.1883 10.5796 42.5515 9.92592C41.9147 9.27226 41.0455 8.89665 40.1331 8.88086ZM24.793 37.3109H23.203V35.9308H24.793V37.3109ZM41.733 32.4409C41.7397 32.6576 41.7036 32.8735 41.6268 33.0762C41.55 33.2789 41.4339 33.4646 41.2853 33.6224C41.1367 33.7803 40.9585 33.9074 40.7608 33.9963C40.5631 34.0853 40.3498 34.1344 40.1331 34.1409H7.87302C7.6563 34.1344 7.44299 34.0853 7.24527 33.9963C7.04755 33.9074 6.8693 33.7803 6.7207 33.6224C6.57211 33.4646 6.45609 33.2789 6.37927 33.0762C6.30246 32.8735 6.26637 32.6576 6.27304 32.4409V32.3409H41.733V32.4409ZM41.733 30.5408H6.27304V12.3708C6.26227 11.9349 6.42452 11.5124 6.72434 11.1957C7.02415 10.879 7.43712 10.6939 7.87302 10.6808H40.1331C40.569 10.6939 40.9819 10.879 41.2817 11.1957C41.5816 11.5124 41.7438 11.9349 41.733 12.3708V30.5408Z" fill="#F8615C"></path><path d="M35.3531 21.2193C35.3538 21.3483 35.3265 21.476 35.2729 21.5934C35.2194 21.7108 35.141 21.8152 35.0431 21.8993L30.3631 26.0493C30.2003 26.1929 29.9901 26.2713 29.7731 26.2693C29.645 26.27 29.5182 26.2436 29.401 26.1919C29.2839 26.1402 29.1789 26.0643 29.0931 25.9693C28.9353 25.7903 28.8551 25.5559 28.8701 25.3177C28.8851 25.0796 28.9941 24.8571 29.1731 24.6993L33.0831 21.2393L29.1831 17.8993C29.0825 17.8261 28.9982 17.7329 28.9354 17.6256C28.8727 17.5182 28.8329 17.3989 28.8185 17.2754C28.8042 17.1519 28.8155 17.0267 28.852 16.9078C28.8884 16.7889 28.9491 16.6788 29.0303 16.5845C29.1114 16.4903 29.2111 16.4138 29.3232 16.36C29.4354 16.3062 29.5575 16.2763 29.6817 16.272C29.806 16.2678 29.9298 16.2893 30.0454 16.3353C30.1609 16.3813 30.2657 16.4508 30.3531 16.5393L35.0331 20.5393C35.1318 20.6233 35.2113 20.7275 35.2665 20.8447C35.3217 20.962 35.3512 21.0897 35.3531 21.2193Z" fill="#F8615C"></path><path d="M18.9023 25.9691C18.8193 26.0649 18.7163 26.1414 18.6006 26.1932C18.4848 26.245 18.3592 26.2709 18.2324 26.2691C18.0123 26.2707 17.7992 26.1925 17.6324 26.0491L12.9524 21.8991C12.8578 21.8128 12.7823 21.7078 12.7306 21.5907C12.679 21.4736 12.6523 21.347 12.6523 21.2191C12.6537 21.0918 12.6821 20.9663 12.7355 20.8508C12.7889 20.7353 12.8662 20.6325 12.9623 20.5491L17.6424 16.5491C17.7297 16.4605 17.8345 16.3911 17.95 16.3451C18.0656 16.2991 18.1894 16.2775 18.3137 16.2818C18.438 16.286 18.56 16.316 18.6722 16.3698C18.7843 16.4236 18.8841 16.5 18.9652 16.5943C19.0463 16.6886 19.107 16.7986 19.1434 16.9175C19.1799 17.0365 19.1913 17.1616 19.1769 17.2852C19.1625 17.4087 19.1227 17.5279 19.06 17.6353C18.9973 17.7427 18.9129 17.8359 18.8123 17.9091L14.9224 21.2491L18.8324 24.7091C19.0069 24.868 19.1121 25.0891 19.1252 25.3247C19.1383 25.5604 19.0582 25.7918 18.9023 25.9691Z" fill="#F8615C"></path><path d="M26.4301 17.4999L23.2601 26.0499C23.1964 26.2238 23.0805 26.3737 22.9284 26.4793C22.7763 26.5849 22.5953 26.641 22.4101 26.6399C22.3073 26.6543 22.203 26.6543 22.1001 26.6399C21.8774 26.5546 21.6971 26.3852 21.5979 26.1683C21.4988 25.9513 21.4888 25.7041 21.5701 25.4799L24.7401 16.9299C24.8224 16.7058 24.9902 16.5235 25.2068 16.4232C25.4234 16.3229 25.671 16.3127 25.8951 16.3949C26.1192 16.4771 26.3015 16.645 26.4018 16.8616C26.5022 17.0782 26.5124 17.3258 26.4301 17.5499V17.4999Z" fill="#F8615C"></path></svg>